<?xml version="1.0" encoding="iso-8859-1"?>
<!-- Uploaded to: SVG Repo, www.svgrepo.com, Generator: SVG Repo Mixer Tools -->
<svg fill="#808080" height="800px" width="800px" version="1.1" id="Layer_1" xmlns="http://www.w3.org/2000/svg" xmlns:xlink="http://www.w3.org/1999/xlink" 
	 viewBox="0 0 512 512" xml:space="preserve">
<g>
	<g>
		<g>
			<path d="M426.667,0H85.333C38.202,0,0,38.202,0,85.333v341.333C0,473.798,38.202,512,85.333,512h341.333
				C473.798,512,512,473.798,512,426.667V85.333C512,38.202,473.798,0,426.667,0z M469.333,426.667
				c0,23.567-19.099,42.667-42.667,42.667H85.333c-23.567,0-42.667-19.099-42.667-42.667V85.333
				c0-23.567,19.099-42.667,42.667-42.667h341.333c23.567,0,42.667,19.099,42.667,42.667V426.667z"/>
			<path d="M400.706,64.508l-192,42.667C198.945,109.344,192,118.001,192,128v85.333v112.786c-9.771-3.942-20.648-6.119-32-6.119
				c-40.33,0-74.667,27.468-74.667,64c0,36.532,34.337,64,74.667,64s74.667-27.468,74.667-64V230.446L384,197.261v64.858
				c-9.771-3.942-20.648-6.119-32-6.119c-40.33,0-74.667,27.468-74.667,64c0,36.532,34.337,64,74.667,64s74.667-27.468,74.667-64
				V170.667V85.333C426.667,71.685,414.028,61.547,400.706,64.508z M160,405.333c-18.597,0-32-10.722-32-21.333
				c0-10.611,13.403-21.333,32-21.333s32,10.722,32,21.333C192,394.612,178.597,405.333,160,405.333z M234.667,145.113L384,111.928
				v41.626l-149.333,33.185V145.113z M352,341.333c-18.597,0-32-10.722-32-21.333s13.403-21.333,32-21.333
				c18.597,0,32,10.722,32,21.333S370.597,341.333,352,341.333z"/>
		</g>
	</g>
</g>
</svg>