<?xml version="1.0" encoding="iso-8859-1"?>
<!-- Uploaded to: SVG Repo, www.svgrepo.com, Generator: SVG Repo Mixer Tools -->
<svg  fill="#808080"  height="800px" width="800px" version="1.1" id="Layer_1" xmlns="http://www.w3.org/2000/svg" xmlns:xlink="http://www.w3.org/1999/xlink" 
	 viewBox="0 0 512.061 512.061" xml:space="preserve">
<g transform="translate(0 -1)">
	<g>
		<g>
			<path d="M21.364,1.03C9.582,1.03,0.03,10.582,0.03,22.364v469.333c0,11.782,9.551,21.333,21.333,21.333
				c11.782,0,21.333-9.551,21.333-21.333V257.03V22.364C42.697,10.582,33.146,1.03,21.364,1.03z"/>
			<path d="M480.416,3.671L53.749,238.338c-7.368,4.053-11.052,11.373-11.052,18.693c0,7.32,3.684,14.64,11.052,18.693
				L480.416,510.39c14.218,7.82,31.614-2.466,31.614-18.693V22.364C512.03,6.138,494.634-4.149,480.416,3.671z M469.364,455.617
				L108.298,257.03L469.364,58.444V455.617z"/>
		</g>
	</g>
</g>
</svg>